<svg id="Grupo_3422" data-name="Grupo 3422" xmlns="http://www.w3.org/2000/svg" xmlns:xlink="http://www.w3.org/1999/xlink" width="36.561" height="36.655" viewBox="0 0 36.561 36.655">
  <defs>
    <clipPath id="clip-path">
      <rect id="Rectángulo_1634" data-name="Rectángulo 1634" width="36.561" height="36.655" fill="#768cb1"/>
    </clipPath>
  </defs>
  <g id="Grupo_3421" data-name="Grupo 3421" clip-path="url(#clip-path)">
    <path id="Trazado_38194" data-name="Trazado 38194" d="M0,18.792A18.542,18.542,0,0,1,18.28,0a18.542,18.542,0,0,1,18.28,18.792A18.755,18.755,0,0,1,24.069,36.62c-.926.185-1.255-.4-1.255-.9,0-.206,0-.565,0-1.046.006-.969.016-2.431.016-4.111A4.562,4.562,0,0,0,21.6,27.082c4.07-.465,8.346-2.054,8.346-9.271a7.373,7.373,0,0,0-1.88-5.044,6.924,6.924,0,0,0-.18-4.973S26.349,7.288,22.86,9.72a16.879,16.879,0,0,0-9.155,0C10.212,7.288,8.676,7.793,8.676,7.793A6.932,6.932,0,0,0,8.5,12.766,7.386,7.386,0,0,0,6.616,17.81c0,7.2,4.267,8.811,8.328,9.287a4.043,4.043,0,0,0-1.16,2.513,3.832,3.832,0,0,1-5.319-1.562,3.857,3.857,0,0,0-2.8-1.937s-1.784-.024-.125,1.143A4.943,4.943,0,0,1,7.567,30s1.073,3.353,6.159,2.217c0,.859.011,1.691.017,2.342,0,.54.007.954.007,1.157,0,.5-.335,1.078-1.249.9A18.757,18.757,0,0,1,0,18.792" transform="translate(0 0)" fill="#768cb1" fill-rule="evenodd"/>
  </g>
</svg>
