<svg xmlns="http://www.w3.org/2000/svg" xmlns:xlink="http://www.w3.org/1999/xlink" width="37" height="37" viewBox="0 0 37 37">
  <defs>
    <clipPath id="clip-path">
      <rect id="Rectángulo_1635" data-name="Rectángulo 1635" width="37" height="37" transform="translate(0 0)" fill="#768cb1"/>
    </clipPath>
  </defs>
  <g id="Grupo_3424" data-name="Grupo 3424" transform="translate(0 0)">
    <g id="Grupo_3423" data-name="Grupo 3423" transform="translate(0 0)" clip-path="url(#clip-path)">
      <path id="Trazado_38195" data-name="Trazado 38195" d="M9.787,3.669a3.671,3.671,0,0,1,7.342,0V7.338H13.458a3.67,3.67,0,0,1-3.67-3.669M3.67,9.787h9.786a3.67,3.67,0,1,1,0,7.34H3.669a3.67,3.67,0,0,1,0-7.34m29.362,0a3.67,3.67,0,1,1,0,7.34H29.361V13.456a3.67,3.67,0,0,1,3.671-3.669M26.915,3.669v9.787a3.67,3.67,0,1,1-7.34,0V3.669a3.67,3.67,0,0,1,7.34,0M23.244,36.7a3.67,3.67,0,1,0,0-7.339h-3.67v3.669a3.673,3.673,0,0,0,3.67,3.67m0-9.79h9.787a3.67,3.67,0,1,0,0-7.34H23.246a3.67,3.67,0,1,0,0,7.34m-19.573,0a3.669,3.669,0,1,1,0-7.338H7.342v3.669A3.67,3.67,0,0,1,3.67,26.913m6.117,6.118V23.244a3.67,3.67,0,0,1,7.34,0v9.785a3.67,3.67,0,1,1-7.34,0" transform="translate(0.394 0.298)" fill="#768cb1" fill-rule="evenodd"/>
    </g>
  </g>
</svg>
