<svg id="slack-new-logo" xmlns="http://www.w3.org/2000/svg" width="432.932" height="433.799" viewBox="0 0 432.932 433.799">
  <path id="Trazado_39902" data-name="Trazado 39902" d="M158.732,0a43.371,43.371,0,0,0,.018,86.742h43.3V43.389A43.368,43.368,0,0,0,158.732,0h0m0,115.68H43.3a43.38,43.38,0,0,0-.018,86.76h115.45a43.38,43.38,0,0,0,0-86.76Z" fill="#36c5f0" fill-rule="evenodd"/>
  <path id="Trazado_39903" data-name="Trazado 39903" d="M1507.432,159.051a43.3,43.3,0,1,0-86.6,0v43.389h43.3A43.342,43.342,0,0,0,1507.432,159.051Zm-115.45,0V43.371a43.291,43.291,0,1,0-86.583,0v115.68a43.291,43.291,0,1,0,86.583,0Z" transform="translate(-1074.501 0)" fill="#2eb67d" fill-rule="evenodd"/>
  <path id="Trazado_39904" data-name="Trazado 39904" d="M1348.6,1510.357a43.371,43.371,0,0,0,0-86.742h-43.3v43.371A43.361,43.361,0,0,0,1348.6,1510.357Zm0-115.7h115.45a43.38,43.38,0,0,0,.018-86.76h-115.45a43.38,43.38,0,0,0-.018,86.76Z" transform="translate(-1074.418 -1076.558)" fill="#ecb22e" fill-rule="evenodd"/>
  <path id="Trazado_39905" data-name="Trazado 39905" d="M0,1351.371a43.3,43.3,0,1,0,86.6,0V1308H43.3A43.338,43.338,0,0,0,0,1351.371Zm115.45,0v115.68a43.291,43.291,0,1,0,86.583.018V1351.406a43.291,43.291,0,1,0-86.583-.035h0" transform="translate(0 -1076.641)" fill="#e01e5a" fill-rule="evenodd"/>
</svg>
